<?xml version="1.0" encoding="UTF-8" standalone="no"?>
<!-- Generator: Adobe Illustrator 18.0.0, SVG Export Plug-In . SVG Version: 6.00 Build 0)  -->

<svg
   xmlns:dc="http://purl.org/dc/elements/1.1/"
   xmlns:cc="http://creativecommons.org/ns#"
   xmlns:rdf="http://www.w3.org/1999/02/22-rdf-syntax-ns#"
   xmlns:svg="http://www.w3.org/2000/svg"
   xmlns="http://www.w3.org/2000/svg"
   xmlns:sodipodi="http://sodipodi.sourceforge.net/DTD/sodipodi-0.dtd"
   xmlns:inkscape="http://www.inkscape.org/namespaces/inkscape"
   version="1.1"
   id="Capa_1"
   x="0px"
   y="0px"
   viewBox="0 0 198.496 198.496"
   style="enable-background:new 0 0 198.496 198.496;"
   xml:space="preserve"
   inkscape:version="0.91 r13725"
   sodipodi:docname="boy.svg"><metadata
     id="metadata85"><rdf:RDF><cc:Work
         rdf:about=""><dc:format>image/svg+xml</dc:format><dc:type
           rdf:resource="http://purl.org/dc/dcmitype/StillImage" /><dc:title></dc:title></cc:Work></rdf:RDF></metadata><defs
     id="defs83" /><sodipodi:namedview
     pagecolor="#ffffff"
     bordercolor="#666666"
     borderopacity="1"
     objecttolerance="10"
     gridtolerance="10"
     guidetolerance="10"
     inkscape:pageopacity="0"
     inkscape:pageshadow="2"
     inkscape:window-width="640"
     inkscape:window-height="480"
     id="namedview81"
     showgrid="false"
     inkscape:zoom="1.1889408"
     inkscape:cx="99.248001"
     inkscape:cy="99.248001"
     inkscape:window-x="0"
     inkscape:window-y="30"
     inkscape:window-maximized="0"
     inkscape:current-layer="Capa_1" /><g
     id="g3"
     style="fill:#808080"><g
       id="g5"
       style="fill:#808080"><rect
         x="84.55"
         y="148.231"
         style="fill:#808080"
         width="29.395"
         height="32.922"
         id="rect7" /><path
         style="fill:#808080"
         d="M84.551,152.108c0,0,12.365,7.874,29.395,6.05v-9.928H84.551V152.108z"
         id="path9" /><ellipse
         style="fill:#808080"
         cx="42.164"
         cy="97.181"
         rx="14.343"
         ry="16.364"
         id="ellipse11" /><ellipse
         style="fill:#808080"
         cx="156.332"
         cy="97.181"
         rx="14.343"
         ry="16.364"
         id="ellipse13" /><path
         style="fill:#808080"
         d="M156.274,65.925c0-24.103-17.637-41.741-57.026-41.741c-39.389,0-57.026,17.637-57.026,41.741    c0,24.104-4.115,87.597,57.026,87.597C160.389,153.522,156.274,90.029,156.274,65.925z"
         id="path15" /><g
         id="g17"
         style="fill:#808080"><g
           id="g19"
           style="fill:#808080"><ellipse
             style="fill:#808080"
             cx="71.472"
             cy="93.262"
             rx="6.173"
             ry="6.761"
             id="ellipse21" /><circle
             style="fill:#808080"
             cx="68.781"
             cy="90.277"
             r="1.846"
             id="circle23" /></g><path
           style="fill:#808080"
           d="M61.597,76.507c2.919,1.46,7.606-4.96,18.335,0.625c1.956,1.018,3.123-8.708-8.377-8.708     C61.597,68.424,59.833,75.626,61.597,76.507z"
           id="path25" /><g
           id="g27"
           style="fill:#808080"><ellipse
             style="fill:#808080"
             cx="127.786"
             cy="93.262"
             rx="6.173"
             ry="6.761"
             id="ellipse29" /><circle
             style="fill:#808080"
             cx="125.095"
             cy="90.277"
             r="1.846"
             id="circle31" /></g><path
           style="fill:#808080"
           d="M136.899,76.507c-2.919,1.46-7.606-4.96-18.335,0.625c-1.956,1.018-3.123-8.708,8.378-8.708     C136.899,68.424,138.662,75.626,136.899,76.507z"
           id="path33" /></g><path
         style="fill:#808080"
         d="M99.248,117.043c-6.1,0-9.774-4.556-9.774-2.352c0,2.205,1.764,6.394,9.774,6.394    c8.01,0,9.774-4.189,9.774-6.394C109.022,112.486,105.347,117.043,99.248,117.043z"
         id="path35" /><path
         style="fill:#808080"
         d="M99.248,137.313c-2.11,0-3.381-1.576-3.381-0.813s0.61,2.211,3.381,2.211    c2.771,0,3.38-1.448,3.38-2.211S101.357,137.313,99.248,137.313z"
         id="path37" /><path
         style="fill:#808080"
         d="M99.248,131.696c-9.668,0-15.493-3.937-15.493-2.939c0,0.998,2.796,4.924,15.493,4.924    c12.697,0,15.493-3.926,15.493-4.924C114.74,127.759,108.916,131.696,99.248,131.696z"
         id="path39" /></g><path
       style="fill:#808080"
       d="M99.248,161.458v37.038H27.821C27.821,183.504,65.444,161.458,99.248,161.458z"
       id="path41" /><path
       style="fill:#808080"
       d="M99.248,161.458v37.038h71.427C170.675,183.504,133.052,161.458,99.248,161.458z"
       id="path43" /><path
       style="fill:#808080"
       d="M99.248,161.458c-7.19,0-14.552,1.005-21.689,2.72c0.048,0.063,7.916,10.214,21.689,10.214   c12.754,0,21.233-8.693,22.462-10.03C114.332,162.531,106.698,161.458,99.248,161.458z"
       id="path45" /><path
       style="fill:#808080"
       d="M84.55,162.74c0,0,4.299,5.332,14.697,5.332c10.398,0,14.698-5.332,14.698-5.332   S98.697,157.189,84.55,162.74z"
       id="path47" /><path
       style="fill:#808080"
       d="M146.132,19.041c0,0-21.164-26.896-65.152-16.755C36.993,12.426,33.697,38.882,35.02,64.621   c1.323,25.74,4.85,40.84,9.022,38.974c4.172-1.867,2.001-18.857,2.442-22.778c0.441-3.921,4.409-21.653,31.162-19.007   c26.752,2.646,49.296-7.055,49.296-7.055s9.075,11.471,15.047,13.669c11.934,4.391,8.02,33.67,12.696,33.67   S182.288,34.473,146.132,19.041z"
       id="path49" /></g><g
     id="g51" /><g
     id="g53" /><g
     id="g55" /><g
     id="g57" /><g
     id="g59" /><g
     id="g61" /><g
     id="g63" /><g
     id="g65" /><g
     id="g67" /><g
     id="g69" /><g
     id="g71" /><g
     id="g73" /><g
     id="g75" /><g
     id="g77" /><g
     id="g79" /></svg>