<?xml version="1.0" encoding="UTF-8" standalone="no"?>
<!-- Generator: Adobe Illustrator 19.0.0, SVG Export Plug-In . SVG Version: 6.00 Build 0)  -->

<svg
   xmlns:dc="http://purl.org/dc/elements/1.1/"
   xmlns:cc="http://creativecommons.org/ns#"
   xmlns:rdf="http://www.w3.org/1999/02/22-rdf-syntax-ns#"
   xmlns:svg="http://www.w3.org/2000/svg"
   xmlns="http://www.w3.org/2000/svg"
   xmlns:sodipodi="http://sodipodi.sourceforge.net/DTD/sodipodi-0.dtd"
   xmlns:inkscape="http://www.inkscape.org/namespaces/inkscape"
   version="1.1"
   id="Layer_1"
   x="0px"
   y="0px"
   viewBox="0 0 512 512"
   style="enable-background:new 0 0 512 512;"
   xml:space="preserve"
   inkscape:version="0.48.4 r9939"
   width="100%"
   height="100%"
   sodipodi:docname="xls.svg"><metadata
     id="metadata79"><rdf:RDF><cc:Work
         rdf:about=""><dc:format>image/svg+xml</dc:format><dc:type
           rdf:resource="http://purl.org/dc/dcmitype/StillImage" /></cc:Work></rdf:RDF></metadata><defs
     id="defs77" /><sodipodi:namedview
     pagecolor="#ffffff"
     bordercolor="#666666"
     borderopacity="1"
     objecttolerance="10"
     gridtolerance="10"
     guidetolerance="10"
     inkscape:pageopacity="0"
     inkscape:pageshadow="2"
     inkscape:window-width="1920"
     inkscape:window-height="1056"
     id="namedview75"
     showgrid="false"
     inkscape:zoom="0.4609375"
     inkscape:cx="-110.64407"
     inkscape:cy="256"
     inkscape:window-x="0"
     inkscape:window-y="24"
     inkscape:window-maximized="1"
     inkscape:current-layer="Layer_1" /><path
     style="fill:#E4EAF8;"
     d="M97.103,17.655C97.103,7.904,105.007,0,114.759,0h264.828l88.276,88.276v406.069  c0,9.751-7.904,17.655-17.655,17.655H114.759c-9.751,0-17.655-7.904-17.655-17.655V17.655z"
     id="path3" /><g
     id="g5"><path
       style="fill:#D5DCED;"
       d="M300.138,467.862H97.103V308.966h203.034c19.501,0,35.31,15.809,35.31,35.31v88.276   C335.448,452.053,319.639,467.862,300.138,467.862z"
       id="path7" /><path
       style="fill:#D5DCED;"
       d="M379.586,0v70.621c0,9.75,7.905,17.655,17.655,17.655h70.621L379.586,0z"
       id="path9" /></g><path
     style="fill:#9BF57D;"
     d="M300.138,450.207H61.793c-9.751,0-17.655-7.904-17.655-17.655v-88.276  c0-9.751,7.904-17.655,17.655-17.655h238.345c9.751,0,17.655,7.904,17.655,17.655v88.276  C317.793,442.303,309.889,450.207,300.138,450.207z"
     id="path11" /><g
     id="g21"><path
       style="fill:#9BF57D;"
       d="M194.207,256h35.31c4.875,0,8.828-3.953,8.828-8.828v-8.828c0-4.875-3.953-8.828-8.828-8.828h-35.31   c-4.875,0-8.828,3.953-8.828,8.828v8.828C185.379,252.047,189.332,256,194.207,256z"
       id="path23" /><path
       style="fill:#9BF57D;"
       d="M194.207,211.862h35.31c4.875,0,8.828-3.953,8.828-8.828v-8.828c0-4.875-3.953-8.828-8.828-8.828   h-35.31c-4.875,0-8.828,3.953-8.828,8.828v8.828C185.379,207.91,189.332,211.862,194.207,211.862z"
       id="path25" /></g><path
     style="fill:#7DC86E;"
     d="M194.207,167.724h35.31c4.875,0,8.828-3.953,8.828-8.828v-8.828c0-4.875-3.953-8.828-8.828-8.828  h-35.31c-4.875,0-8.828,3.953-8.828,8.828v8.828C185.379,163.772,189.332,167.724,194.207,167.724z"
     id="path27" /><g
     id="g29"><path
       style="fill:#AFB9D2;"
       d="M264.828,256h35.31c4.875,0,8.828-3.953,8.828-8.828v-8.828c0-4.875-3.953-8.828-8.828-8.828h-35.31   c-4.875,0-8.828,3.953-8.828,8.828v8.828C256,252.047,259.953,256,264.828,256z"
       id="path31" /><path
       style="fill:#AFB9D2;"
       d="M264.828,211.862h35.31c4.875,0,8.828-3.953,8.828-8.828v-8.828c0-4.875-3.953-8.828-8.828-8.828   h-35.31c-4.875,0-8.828,3.953-8.828,8.828v8.828C256,207.91,259.953,211.862,264.828,211.862z"
       id="path33" /></g><path
     style="fill:#7DC86E;"
     d="M264.828,167.724h35.31c4.875,0,8.828-3.953,8.828-8.828v-8.828c0-4.875-3.953-8.828-8.828-8.828  h-35.31c-4.875,0-8.828,3.953-8.828,8.828v8.828C256,163.772,259.953,167.724,264.828,167.724z"
     id="path35" /><g
     id="g37"><path
       style="fill:#AFB9D2;"
       d="M335.448,256h35.31c4.875,0,8.828-3.953,8.828-8.828v-8.828c0-4.875-3.953-8.828-8.828-8.828h-35.31   c-4.875,0-8.828,3.953-8.828,8.828v8.828C326.621,252.047,330.573,256,335.448,256z"
       id="path39" /><path
       style="fill:#AFB9D2;"
       d="M335.448,211.862h35.31c4.875,0,8.828-3.953,8.828-8.828v-8.828c0-4.875-3.953-8.828-8.828-8.828   h-35.31c-4.875,0-8.828,3.953-8.828,8.828v8.828C326.621,207.91,330.573,211.862,335.448,211.862z"
       id="path41" /></g><path
     style="fill:#7DC86E;"
     d="M335.448,167.724h35.31c4.875,0,8.828-3.953,8.828-8.828v-8.828c0-4.875-3.953-8.828-8.828-8.828  h-35.31c-4.875,0-8.828,3.953-8.828,8.828v8.828C326.621,163.772,330.573,167.724,335.448,167.724z"
     id="path43" /><g
     id="g45" /><g
     id="g47" /><g
     id="g49" /><g
     id="g51" /><g
     id="g53" /><g
     id="g55" /><g
     id="g57" /><g
     id="g59" /><g
     id="g61" /><g
     id="g63" /><g
     id="g65" /><g
     id="g67" /><g
     id="g69" /><g
     id="g71" /><g
     id="g73" /><text
     xml:space="preserve"
     style="font-size:40px;font-style:normal;font-weight:normal;line-height:125%;letter-spacing:0px;word-spacing:0px;fill:#ffffff;fill-opacity:1;stroke:none;font-family:Sans"
     x="96.13559"
     y="424.54236"
     id="text3056"
     sodipodi:linespacing="125%"><tspan
       sodipodi:role="line"
       id="tspan3058"
       x="96.13559"
       y="424.54236"
       style="font-size:90px;font-style:normal;font-variant:normal;font-weight:bold;font-stretch:normal;font-family:AvantGarde LT Medium;-inkscape-font-specification:AvantGarde LT Medium">CSV</tspan></text>
<flowRoot
     xml:space="preserve"
     id="flowRoot3828"
     style="fill:black;stroke:none;stroke-opacity:1;stroke-width:1px;stroke-linejoin:miter;stroke-linecap:butt;fill-opacity:1;font-family:Sans;font-style:normal;font-weight:normal;font-size:64px;line-height:125%;letter-spacing:0px;word-spacing:0px"><flowRegion
       id="flowRegion3830"><rect
         id="rect3832"
         width="945.89832"
         height="791.86438"
         x="-440.40677"
         y="-462.10168" /></flowRegion><flowPara
       id="flowPara3834"></flowPara></flowRoot></svg>